<svg width="861" height="132" viewBox="0 0 861 132" fill="none" xmlns="http://www.w3.org/2000/svg">
<path d="M775.807 7.22705H808.946L860.77 130.793H826.397L791.495 39.4847L755.888 130.793H722.749L775.807 7.22705ZM754.478 84.2576H826.573V108.583H754.478V84.2576Z" fill="white"/>
<path d="M663.587 7.22705C680.039 7.22705 692.73 11.0463 701.662 18.6847C710.592 26.2057 715.059 36.8406 715.059 50.5898C715.059 65.044 710.592 76.3254 701.662 84.4339C692.73 92.4243 680.039 96.4203 663.587 96.4203H640.32V130.793H608.062V7.22705H663.587ZM663.587 71.0373C670.286 71.0373 675.398 69.3921 678.923 66.1017C682.565 62.8114 684.387 57.9345 684.387 51.4711C684.387 45.243 682.565 40.5423 678.923 37.3694C675.398 34.1966 670.286 32.6101 663.587 32.6101H640.32V71.0373H663.587ZM657.947 84.6102H689.323L718.76 130.793H682.272L657.947 84.6102Z" fill="white"/>
<path d="M489.112 7.22705H586.59V32.6101H521.37V56.2305H580.245V81.4373H521.37V105.41H588.353V130.793H489.112V7.22705Z" fill="white"/>
<path d="M347.668 7.22705H382.394L413.241 97.1254L444.265 7.22705H477.404L428.93 130.793H395.614L347.668 7.22705Z" fill="white"/>
<path d="M264.603 0H278.352V130.793H264.603V0ZM326.121 38.0748H342.338L276.942 105.587V88.6645L326.121 38.0748ZM305.85 71.5663L346.04 130.793H329.647L295.627 79.8511L305.85 71.5663Z" fill="white"/>
<path d="M215.715 0H229.465V130.793H215.715V0Z" fill="white"/>
<path d="M141.655 87.2544C133.899 87.2544 128.022 88.5465 124.028 91.1324C120.032 93.7183 118.035 97.6544 118.035 102.943C118.035 108.231 119.914 112.519 123.676 115.81C127.554 118.983 132.782 120.57 139.364 120.57C144.768 120.57 149.646 119.688 153.994 117.926C158.341 116.163 161.927 113.637 164.747 110.346C167.684 107.055 169.682 103.061 170.74 98.3595L174.265 109.465C170.975 116.868 166.097 122.391 159.635 126.034C153.171 129.56 145.533 131.322 136.72 131.322C130.374 131.322 124.791 130.088 119.974 127.621C115.273 125.153 111.629 121.804 109.045 117.573C106.459 113.343 105.167 108.583 105.167 103.295C105.167 95.3047 108.222 88.959 114.333 84.2576C120.443 79.5572 128.964 77.1481 139.893 77.0307H172.855V87.2544H141.655ZM170.388 70.8612C170.388 63.8103 168.272 58.3457 164.042 54.4678C159.928 50.5898 153.758 48.6508 145.533 48.6508C140.361 48.6508 135.368 49.591 130.55 51.4713C125.731 53.3514 120.913 55.9955 116.096 59.4034L110.279 50.4135C114.273 47.7108 118.151 45.4192 121.913 43.539C125.673 41.6588 129.669 40.2487 133.899 39.3084C138.13 38.2508 142.889 37.7222 148.177 37.7222C159.693 37.7222 168.507 40.6012 174.618 46.3593C180.728 52 183.842 59.7559 183.96 69.6271L184.137 130.793H170.74L170.388 70.8612Z" fill="white"/>
<path d="M-0.00012207 7.40332H94.6575V19.7423H54.2914V130.793H40.1897V19.7423H-0.00012207V7.40332Z" fill="white"/>
</svg>
